<svg xmlns="http://www.w3.org/2000/svg" viewBox="0 0 32 29"><defs><style>.cls-1{fill:#fff;}</style></defs><g id="Camada_2" data-name="Camada 2"><g id="Icons"><path class="cls-1" d="M24,13a8,8,0,1,0,8,8A8,8,0,0,0,24,13Zm3,9H25v2a1,1,0,0,1-2,0V22H21a1,1,0,0,1,0-2h2V18a1,1,0,0,1,2,0v2h2a1,1,0,0,1,0,2Z"/><path class="cls-1" d="M14.2,23a12.31,12.31,0,0,1-.2-2H7.6a.65.65,0,0,1-.6-.6.56.56,0,0,1,.5-.6l6.8-1.1A10,10,0,0,1,24,11a8.63,8.63,0,0,1,2.8.4L28,5.2a1,1,0,1,0-2-.4L25.8,6H6.6V5.9a4.07,4.07,0,0,0-.2-4A3.9,3.9,0,0,0,3,0H1A.94.94,0,0,0,0,1,.94.94,0,0,0,1,2H3A2.23,2.23,0,0,1,4.8,3a2,2,0,0,1,.1,2L4.1,6.6h0c0,.1,0,.1-.1.2V7H4v.4L7.8,17.7l-.6.1A2.59,2.59,0,0,0,5,20.4a2.65,2.65,0,0,0,1.3,2.3A2.77,2.77,0,0,0,6,24a3,3,0,0,0,3,3,2.93,2.93,0,0,0,2.8-4ZM9,25a1,1,0,0,1,0-2,1,1,0,0,1,0,2Z"/></g></g></svg>